<?xml version="1.0" standalone="no"?>
<!DOCTYPE svg PUBLIC "-//W3C//DTD SVG 20010904//EN"
 "http://www.w3.org/TR/2001/REC-SVG-20010904/DTD/svg10.dtd">
<svg version="1.0" xmlns="http://www.w3.org/2000/svg"
 width="2200.000000pt" height="650.000000pt" viewBox="120 460 2200.000000 650.000000"
 preserveAspectRatio="xMidYMid meet">
<g transform="translate(0.000000,1600.000000) scale(0.100000,-0.100000)"
fill="#000000" stroke="none">
<path d="M2230 10780 c-27 -17 0 -63 48 -80 60 -23 136 -101 161 -167 21 -55
21 -57 21 -1536 -1 -825 -5 -1526 -10 -1582 -5 -55 -14 -156 -19 -224 -6 -68
-17 -145 -25 -170 -9 -25 -20 -75 -25 -109 -6 -35 -14 -69 -19 -75 -6 -7 -13
-32 -17 -57 -4 -24 -13 -54 -20 -65 -7 -11 -16 -36 -20 -55 -4 -19 -13 -42
-20 -50 -7 -8 -16 -29 -20 -47 -3 -17 -12 -37 -20 -43 -7 -6 -16 -22 -19 -36
-7 -25 -13 -36 -64 -111 -12 -18 -22 -36 -22 -41 0 -5 -7 -15 -15 -22 -8 -6
-31 -37 -51 -67 -33 -50 -202 -225 -256 -265 -13 -9 -36 -28 -53 -41 -28 -21
-69 -49 -107 -72 -68 -41 -112 -65 -119 -65 -4 0 -29 -11 -55 -25 -26 -14 -53
-25 -59 -25 -7 0 -18 -6 -24 -14 -6 -7 -30 -17 -53 -20 -24 -4 -49 -13 -58
-20 -8 -7 -46 -16 -84 -19 -49 -5 -75 -12 -90 -26 -12 -11 -33 -24 -48 -30
-34 -13 -36 -27 -5 -35 38 -10 82 -7 103 9 11 8 42 14 74 15 35 0 70 7 95 20
22 11 53 20 71 20 17 0 42 8 55 19 13 10 43 22 66 26 23 3 47 13 53 20 6 8 26
17 43 20 18 4 39 13 47 20 8 7 26 16 40 20 13 4 36 15 50 24 40 27 63 40 90
53 188 92 508 404 660 643 39 61 110 188 116 208 4 12 15 33 25 46 11 13 19
31 19 40 0 9 6 26 14 37 8 11 18 38 21 60 4 21 13 45 19 53 14 18 44 117 61
206 8 39 20 86 27 105 10 27 14 387 18 1660 5 1523 7 1628 23 1669 23 57 62
98 114 121 73 33 83 94 11 72 -87 -28 -662 -22 -717 7 -10 6 -23 6 -31 1z"/>
<path d="M12765 10379 c-22 -5 -87 -16 -145 -23 -58 -8 -123 -21 -145 -30 -22
-8 -52 -15 -66 -16 -15 0 -32 -7 -39 -15 -7 -8 -28 -17 -49 -21 -35 -6 -204
-84 -286 -133 -11 -6 -35 -18 -52 -26 -18 -9 -33 -19 -33 -24 0 -4 -11 -13
-25 -19 -101 -46 -465 -406 -465 -460 0 -6 -6 -15 -14 -19 -7 -4 -28 -33 -45
-63 -18 -30 -36 -62 -41 -70 -6 -8 -14 -26 -20 -40 -5 -14 -14 -32 -20 -40
-18 -29 -60 -127 -60 -141 0 -8 -5 -20 -11 -26 -6 -6 -17 -37 -24 -70 -8 -32
-20 -76 -29 -98 -8 -22 -15 -60 -16 -85 0 -25 -7 -70 -15 -100 -20 -74 -20
-311 0 -405 8 -38 15 -84 15 -102 0 -18 11 -67 25 -109 14 -42 25 -84 25 -93
0 -9 7 -25 15 -35 8 -11 15 -27 15 -35 0 -19 85 -189 106 -212 7 -8 19 -30 25
-47 6 -18 15 -32 20 -32 5 0 9 -6 9 -14 0 -31 138 -189 274 -314 80 -72 318
-228 423 -277 17 -8 34 -19 38 -25 3 -5 16 -10 28 -10 13 0 40 -9 62 -20 22
-11 49 -20 61 -20 12 0 42 -8 66 -18 24 -11 68 -22 99 -25 31 -4 74 -14 95
-24 51 -21 554 -26 591 -6 12 7 53 17 91 23 38 5 82 16 98 25 16 8 40 15 54
15 14 0 39 9 55 20 17 11 38 20 48 20 11 0 30 9 44 20 14 11 31 20 38 20 6 0
36 18 65 40 29 22 59 40 65 40 12 0 118 76 175 125 90 78 270 281 270 304 0 6
4 11 8 11 11 0 62 78 62 95 0 8 8 20 19 27 24 17 36 71 21 97 -17 32 -38 25
-46 -14 -5 -31 -21 -54 -69 -106 -8 -9 -15 -20 -15 -26 0 -5 -11 -19 -25 -31
-14 -12 -25 -27 -25 -34 0 -12 -3 -16 -85 -98 -70 -71 -127 -121 -190 -169
-53 -40 -64 -47 -172 -100 -118 -58 -150 -71 -169 -71 -10 0 -48 -9 -82 -20
-72 -23 -304 -28 -377 -9 -22 6 -65 15 -95 20 -30 6 -67 17 -82 25 -14 7 -31
14 -38 14 -13 0 -114 49 -175 85 -22 13 -56 33 -76 44 -46 26 -126 97 -259
232 -114 116 -123 126 -159 179 -13 19 -69 80 -125 136 -55 55 -126 128 -156
162 -79 89 -109 75 -55 -26 14 -26 25 -54 25 -63 0 -9 6 -22 14 -28 7 -6 16
-30 19 -52 3 -23 14 -51 25 -62 11 -12 23 -32 27 -44 3 -13 10 -23 15 -23 5 0
11 -14 15 -30 4 -17 15 -35 25 -40 10 -5 21 -23 25 -40 4 -16 11 -30 16 -30 5
0 14 -12 19 -26 9 -23 42 -68 101 -139 27 -33 184 -188 218 -215 30 -24 61
-69 61 -88 0 -21 -34 -22 -56 -1 -15 14 -29 19 -43 14 -16 -5 -23 -1 -30 17
-5 13 -30 34 -55 48 -25 13 -46 27 -46 31 0 3 -12 19 -26 34 -23 25 -29 27
-46 16 -19 -11 -19 -10 -13 17 6 32 -30 82 -59 82 -8 0 -16 9 -19 21 -5 18 -8
19 -26 7 -26 -16 -36 -6 -19 21 18 29 -5 54 -25 27 -11 -15 -17 -17 -33 -8
-18 11 -18 12 4 18 30 9 28 18 -18 65 -24 25 -40 51 -40 66 0 13 -7 26 -15 29
-16 6 -89 152 -101 200 -4 16 -10 34 -14 39 -4 6 -13 28 -20 50 -7 22 -16 45
-20 50 -5 6 -13 36 -19 68 -6 31 -16 67 -22 79 -6 12 -16 51 -20 87 -5 36 -15
95 -24 131 -21 93 -21 488 1 585 8 39 19 101 25 139 5 38 13 74 19 81 5 6 15
36 21 66 6 30 18 63 25 74 8 11 14 27 14 37 0 22 123 276 140 288 4 3 23 29
43 58 63 92 135 178 174 208 21 15 40 30 43 34 13 14 107 87 120 93 8 4 33 18
55 31 58 37 143 77 179 87 17 4 51 14 76 23 84 28 135 38 240 47 130 12 349 3
395 -17 19 -8 49 -14 67 -14 18 0 53 -9 77 -20 24 -11 50 -20 58 -20 29 0 215
-98 275 -144 14 -12 39 -31 55 -43 70 -53 203 -220 203 -254 0 -5 9 -27 20
-49 11 -22 20 -55 20 -74 0 -49 9 -66 35 -66 26 0 55 29 55 56 0 11 9 36 20
57 11 20 20 44 20 52 0 8 9 29 20 47 11 18 20 40 20 49 0 9 9 28 20 42 11 14
20 32 20 41 0 9 9 24 20 33 55 48 9 84 -260 206 -25 11 -61 29 -81 39 -20 10
-46 18 -58 18 -12 0 -38 9 -58 20 -21 11 -48 20 -60 20 -13 0 -40 9 -60 20
-21 11 -51 20 -68 20 -16 0 -57 9 -90 19 -33 11 -100 25 -150 31 -49 6 -115
15 -145 20 -70 11 -322 11 -375 -1z m-276 -3181 c1 -5 -10 -8 -23 -8 -29 0
-63 40 -44 51 11 7 66 -28 67 -43z"/>
<path d="M6512 10273 c-48 -9 -36 -52 14 -53 27 0 142 -87 182 -137 70 -88 74
-118 67 -493 -4 -184 -8 -724 -10 -1200 -4 -902 -11 -1076 -47 -1118 -9 -9
-19 -27 -23 -40 -3 -12 -18 -29 -33 -37 -42 -23 -84 -64 -79 -78 3 -9 60 -12
223 -11 250 0 257 3 173 69 -50 39 -87 99 -102 165 -3 14 -7 563 -8 1220 -2
1105 -1 1195 14 1198 10 2 20 -5 24 -15 3 -10 13 -26 22 -35 40 -44 51 -58
111 -138 35 -47 72 -95 84 -106 12 -12 30 -34 41 -50 28 -38 107 -137 120
-149 6 -5 42 -48 80 -95 38 -47 76 -92 85 -100 9 -8 65 -77 125 -152 60 -76
112 -138 117 -138 4 0 8 -5 8 -11 0 -10 32 -50 133 -169 57 -67 58 -69 127
-155 34 -44 70 -87 79 -95 9 -8 37 -42 63 -75 26 -33 53 -67 60 -75 14 -16
218 -264 356 -433 46 -56 88 -103 93 -105 5 -2 9 -8 9 -13 0 -5 57 -80 126
-166 69 -87 133 -168 142 -180 9 -13 27 -35 40 -49 13 -15 34 -43 48 -63 95
-141 140 -185 163 -157 9 11 10 24 1 53 -17 58 -32 409 -26 583 21 543 25 810
25 1520 0 799 4 894 34 928 9 10 17 23 17 28 0 17 53 62 93 79 40 17 47 30 20
43 -14 6 -355 9 -435 3 -30 -2 -21 -37 12 -51 31 -13 100 -84 100 -104 0 -6 9
-28 20 -49 20 -37 20 -54 21 -965 0 -510 4 -1010 8 -1112 5 -101 7 -190 4
-197 -6 -14 -43 -18 -43 -5 0 13 -135 185 -217 276 -7 8 -45 54 -84 103 -39
48 -77 93 -83 98 -6 6 -33 37 -58 70 -26 33 -55 69 -65 80 -10 11 -38 45 -63
75 -24 30 -50 60 -56 65 -6 6 -15 17 -20 26 -10 19 -60 80 -119 144 -22 24
-53 60 -70 81 -16 21 -44 54 -60 73 -17 20 -56 68 -88 106 -109 134 -202 245
-251 298 -15 18 -39 48 -51 67 -13 19 -42 55 -64 80 -50 54 -77 86 -138 165
-26 33 -50 62 -54 65 -4 3 -30 34 -57 70 -28 36 -58 73 -66 83 -9 9 -40 46
-69 81 -28 35 -74 90 -102 123 -27 33 -57 70 -65 82 -31 47 -122 161 -128 162
-4 0 -77 2 -162 4 -85 3 -180 6 -210 8 -30 3 -65 2 -78 0z"/>
<path d="M9978 10263 c-12 -15 -3 -43 14 -43 25 -1 57 -38 80 -91 l23 -54 1
-590 c1 -882 -16 -2077 -32 -2160 -9 -47 -55 -115 -92 -134 -43 -22 -81 -62
-75 -78 6 -16 38 -15 133 6 68 15 248 13 417 -5 84 -9 160 -14 168 -10 29 11
11 38 -43 67 -138 73 -131 -3 -137 1561 l-4 1277 22 68 c28 84 60 129 104 144
26 8 33 16 31 31 -3 21 -8 21 -301 22 -226 1 -301 -2 -309 -11z"/>
<path d="M15142 10270 c-392 -6 -362 3 -362 -103 0 -38 -6 -80 -14 -95 -8 -15
-19 -59 -25 -98 -6 -39 -17 -87 -26 -107 -8 -20 -18 -69 -21 -109 -5 -52 -12
-79 -26 -94 -23 -26 -10 -39 30 -29 38 10 51 22 58 61 3 19 19 58 35 87 15 28
35 66 43 82 58 121 261 251 431 275 33 5 76 15 95 21 34 11 1009 31 1038 21
21 -7 0 -49 -68 -130 -6 -7 -18 -27 -26 -45 -22 -47 -34 -66 -79 -123 -61 -78
-70 -93 -117 -184 -7 -14 -36 -58 -66 -98 -29 -40 -56 -80 -59 -89 -6 -16
-229 -357 -280 -428 -16 -22 -44 -66 -63 -99 -40 -67 -47 -77 -117 -181 -29
-42 -53 -79 -53 -82 0 -10 -63 -103 -71 -103 -3 0 -9 -8 -13 -17 -3 -10 -19
-38 -36 -63 -16 -25 -34 -54 -39 -65 -5 -11 -43 -71 -84 -132 -41 -61 -78
-121 -82 -132 -3 -12 -11 -21 -16 -21 -5 0 -13 -10 -18 -23 -5 -13 -24 -45
-42 -71 -51 -73 -68 -99 -82 -126 -31 -63 -456 -704 -473 -713 -7 -4 -14 -14
-14 -21 0 -8 -7 -20 -17 -27 -15 -13 -43 -69 -43 -86 0 -23 2414 -22 2446 1
11 9 19 35 24 87 4 41 12 83 17 94 6 11 16 57 22 103 6 45 17 95 25 110 8 16
18 57 22 93 4 39 15 75 28 92 18 25 19 29 4 43 -23 23 -85 -26 -94 -74 -4 -18
-10 -35 -15 -38 -5 -3 -16 -20 -24 -37 -9 -18 -21 -42 -29 -55 -24 -41 -176
-192 -194 -192 -5 0 -20 -8 -33 -19 -55 -43 -225 -97 -330 -105 -42 -3 -87
-10 -100 -15 -40 -15 -1181 -18 -1187 -3 -2 6 8 26 22 43 14 17 26 34 26 39 0
5 33 57 73 117 40 59 88 134 106 166 18 31 37 57 42 57 5 0 9 5 9 12 0 6 29
55 65 108 36 53 65 99 65 103 0 3 34 57 76 119 42 62 79 120 82 128 3 8 30 51
60 94 30 44 57 87 60 95 3 8 40 67 81 131 42 63 81 123 86 132 13 23 125 197
201 312 33 51 63 99 66 107 3 8 34 57 69 110 35 53 76 116 91 140 15 24 33 53
40 63 7 10 41 62 75 115 35 53 67 101 72 107 4 5 14 21 21 35 11 21 96 152
246 378 27 40 57 87 66 104 9 17 22 33 27 36 13 9 61 80 61 91 0 5 9 14 20 20
11 6 20 17 20 25 0 8 9 20 20 27 22 14 26 33 10 43 -6 4 -86 6 -178 4 -210 -3
-136 -3 -772 2 -300 2 -699 2 -888 -1z"/>
<path d="M17603 10272 c-35 -5 -29 -39 10 -56 24 -10 40 -29 64 -77 51 -103
51 -68 40 -1474 -9 -1172 -11 -1280 -31 -1309 -7 -12 -17 -37 -21 -56 -10 -46
-49 -94 -112 -136 -87 -58 -64 -69 107 -53 75 7 223 9 430 4 173 -4 590 -7
925 -6 712 2 642 -12 655 127 4 49 14 103 20 119 7 17 16 66 21 110 5 44 16
90 24 102 26 39 20 103 -10 103 -15 0 -25 -6 -25 -14 0 -7 -7 -20 -16 -27 -9
-7 -30 -42 -46 -77 -17 -36 -37 -72 -45 -81 -56 -65 -105 -112 -129 -125 -16
-9 -49 -28 -74 -42 -124 -70 -143 -73 -695 -77 -275 -2 -507 -7 -516 -11 -9
-4 -25 0 -38 11 l-22 18 0 764 c0 420 3 766 6 770 4 3 185 4 403 2 516 -4 564
-18 653 -188 25 -48 66 -8 53 50 -4 18 -7 110 -6 205 1 204 1 205 -81 127 -40
-37 -72 -58 -100 -65 -23 -6 -53 -16 -67 -22 -17 -7 -145 -12 -380 -14 -195
-2 -377 -5 -405 -8 -86 -10 -80 -68 -77 661 1 610 3 648 19 653 36 11 1039 -5
1054 -16 8 -6 32 -15 53 -19 61 -10 130 -50 181 -102 69 -71 75 -78 75 -94 0
-8 6 -24 14 -35 8 -11 17 -40 21 -65 8 -54 12 -62 44 -79 31 -16 55 11 46 50
-17 77 -26 171 -28 297 -2 78 -6 146 -11 150 -7 7 -1934 12 -1983 5z"/>
<path d="M20266 10272 c-29 -6 -15 -45 19 -54 56 -14 95 -85 106 -192 12 -112
10 -2486 -2 -2634 -9 -116 -39 -181 -91 -203 -16 -6 -28 -15 -28 -20 0 -5 -11
-14 -25 -19 -16 -6 -25 -17 -25 -31 0 -20 2 -21 98 -12 103 9 392 10 504 3 89
-7 91 1 26 68 -97 98 -92 26 -94 1492 -1 685 2 1272 7 1305 18 134 30 170 64
208 19 20 40 37 48 37 22 0 42 29 30 41 -10 10 -592 19 -637 11z"/>
<path d="M22030 10266 c-15 -15 -13 -20 26 -61 39 -42 40 -53 9 -134 -16 -43
-65 -114 -123 -176 -62 -67 -161 -176 -233 -256 -41 -46 -99 -111 -128 -143
-30 -32 -78 -84 -109 -115 -30 -31 -78 -83 -105 -116 -27 -33 -79 -92 -116
-131 -36 -38 -86 -94 -111 -124 -43 -52 -75 -87 -202 -222 -75 -80 -74 -90 15
-183 58 -62 61 -66 112 -135 27 -36 53 -69 59 -75 6 -5 34 -37 61 -70 28 -32
58 -67 68 -77 9 -10 17 -21 17 -25 0 -7 48 -65 93 -113 8 -8 54 -64 102 -124
49 -60 103 -125 121 -145 19 -20 81 -92 140 -161 58 -69 114 -133 123 -143 9
-9 23 -25 31 -35 127 -142 196 -213 272 -278 50 -44 102 -89 116 -101 14 -13
30 -23 37 -23 7 0 18 -6 24 -14 16 -19 145 -106 157 -106 5 0 32 -15 59 -33
28 -18 77 -46 110 -62 33 -16 71 -37 84 -47 13 -10 33 -18 43 -18 11 0 31 -9
45 -20 14 -11 35 -20 46 -20 11 0 34 -9 51 -19 17 -10 47 -22 66 -26 19 -4 51
-16 70 -26 19 -11 49 -19 66 -19 17 0 37 -6 43 -14 7 -8 38 -18 69 -21 31 -3
67 -8 80 -11 15 -3 25 1 29 12 9 25 -32 54 -77 54 -24 0 -43 7 -55 20 -10 11
-34 23 -54 26 -20 4 -44 15 -54 25 -10 11 -27 19 -38 19 -11 0 -41 16 -66 35
-25 19 -49 35 -53 35 -14 0 -125 91 -205 169 -125 121 -166 168 -363 416 -70
89 -133 167 -139 175 -7 8 -79 98 -159 200 -81 102 -153 192 -161 200 -44 48
-78 89 -98 120 -12 19 -33 46 -47 60 -14 14 -101 120 -193 235 -93 116 -175
217 -182 225 -53 58 -203 247 -203 255 0 6 42 54 93 106 50 53 130 137 177
188 47 50 103 111 125 134 57 61 227 246 245 266 295 332 405 445 485 496 33
22 62 42 65 46 3 4 24 12 47 18 23 6 45 16 48 21 3 5 30 12 60 15 59 8 87 27
66 48 -15 15 -567 17 -581 3z"/>
<path d="M4646 10199 c-15 -28 -26 -57 -26 -65 0 -12 -10 -37 -61 -150 -11
-23 -19 -46 -19 -52 0 -5 -15 -41 -34 -78 -19 -38 -43 -89 -54 -114 -48 -109
-93 -199 -102 -205 -6 -3 -10 -15 -10 -26 0 -11 -9 -37 -19 -57 -11 -20 -24
-48 -30 -62 -6 -14 -15 -32 -19 -40 -30 -54 -50 -99 -56 -127 -4 -17 -14 -37
-22 -44 -8 -6 -14 -19 -14 -28 0 -9 -9 -31 -20 -49 -11 -18 -20 -38 -20 -44 0
-10 -11 -37 -61 -143 -67 -144 -99 -217 -99 -226 0 -6 -9 -27 -19 -47 -11 -20
-31 -66 -46 -102 -14 -36 -32 -76 -39 -90 -8 -14 -17 -39 -20 -57 -4 -17 -14
-37 -22 -44 -8 -6 -14 -18 -14 -27 0 -8 -9 -36 -21 -61 -12 -25 -29 -64 -39
-86 -9 -22 -27 -60 -39 -85 -11 -25 -21 -52 -21 -61 0 -9 -9 -28 -20 -42 -11
-14 -20 -33 -20 -42 0 -9 -9 -33 -19 -53 -24 -46 -59 -124 -121 -267 -19 -43
-45 -100 -82 -180 -39 -83 -115 -192 -159 -227 -143 -115 -141 -120 58 -111
189 7 178 0 179 120 0 72 5 106 17 128 9 17 17 36 17 44 0 8 9 32 19 55 10 23
31 70 46 106 14 36 34 81 42 100 9 19 23 53 33 75 9 22 27 60 39 85 11 25 21
49 21 54 0 5 8 27 19 50 10 23 28 62 40 89 11 26 26 47 33 48 7 0 276 0 598 0
322 -1 626 3 675 8 l90 10 27 -31 c14 -17 29 -42 33 -57 3 -14 15 -46 27 -71
39 -86 47 -105 73 -165 14 -33 32 -71 39 -85 7 -14 16 -38 20 -55 4 -16 13
-37 20 -45 7 -8 18 -28 24 -45 6 -16 22 -61 36 -100 38 -104 24 -218 -29 -238
-9 -4 -15 -19 -15 -37 l0 -31 63 8 c90 12 491 7 567 -7 118 -21 138 -22 159
-10 27 14 20 27 -22 35 -17 4 -41 15 -52 25 -11 9 -32 20 -46 23 -14 4 -52 35
-85 71 -76 83 -87 95 -101 126 -7 14 -17 32 -23 40 -5 8 -14 26 -20 40 -5 14
-14 32 -19 40 -12 18 -41 84 -76 170 -15 36 -35 83 -46 106 -10 22 -19 45 -19
51 0 6 -7 16 -15 23 -8 7 -15 20 -15 29 0 9 -12 39 -25 66 -14 28 -25 55 -25
61 0 6 -6 17 -14 23 -8 7 -17 24 -20 39 -4 15 -13 41 -21 57 -42 90 -65 145
-65 158 0 8 -7 20 -15 27 -8 7 -15 19 -15 28 0 8 -12 40 -26 71 -15 31 -32 70
-39 86 -21 49 -65 147 -86 191 -10 22 -19 47 -19 56 0 9 -7 21 -15 28 -8 7
-17 27 -21 46 -3 18 -12 38 -20 45 -7 6 -16 26 -20 45 -3 18 -12 38 -20 45 -8
6 -14 19 -14 28 0 9 -11 39 -25 66 -13 28 -25 57 -25 66 0 9 -7 22 -15 29 -8
7 -15 19 -15 27 0 8 -12 40 -26 71 -14 31 -31 71 -38 87 -7 17 -22 50 -34 75
-23 52 -68 152 -86 195 -7 17 -23 50 -35 75 -11 25 -21 49 -21 53 0 9 -41 103
-65 150 -8 16 -15 34 -15 40 0 7 -9 29 -20 50 -11 20 -20 43 -20 50 0 7 -9 29
-20 50 -11 20 -20 44 -20 53 0 9 -7 28 -15 42 -8 15 -19 39 -25 55 -14 41 -36
33 -64 -24z m-95 -561 c5 -13 16 -34 24 -48 8 -14 15 -33 15 -42 0 -9 4 -19 9
-23 5 -3 15 -22 21 -43 6 -20 18 -50 25 -67 47 -103 65 -145 65 -154 0 -5 7
-22 15 -38 7 -15 23 -48 33 -73 11 -25 32 -71 46 -102 14 -31 26 -60 26 -64 0
-4 9 -28 21 -53 27 -59 43 -95 68 -153 12 -27 30 -67 40 -90 11 -24 22 -54 26
-68 4 -14 13 -32 20 -40 7 -8 16 -29 20 -47 3 -17 13 -37 20 -43 8 -7 17 -27
21 -46 3 -18 12 -38 19 -44 8 -6 17 -26 20 -43 4 -18 13 -39 20 -47 7 -8 15
-28 19 -44 4 -15 17 -41 29 -57 28 -39 14 -65 -34 -62 -19 0 -310 3 -647 4
-368 2 -616 7 -619 13 -3 5 3 27 14 50 12 23 40 82 63 131 22 50 50 108 61
130 10 22 19 45 19 50 0 6 12 33 25 60 14 28 25 55 25 61 0 6 7 17 15 24 8 7
15 21 15 33 0 11 9 34 19 51 10 17 22 45 26 63 3 17 13 37 21 44 8 6 14 22 14
34 0 12 9 34 20 48 11 14 20 31 20 39 0 7 9 27 20 43 11 17 20 36 20 43 0 7
12 39 26 70 25 56 39 86 74 167 26 57 55 130 85 210 15 39 31 74 36 80 5 5 9
19 9 30 0 41 34 49 51 13z"/>
<path d="M12794 10167 c-10 -6 -43 -16 -74 -23 -153 -35 -373 -139 -455 -216
-11 -10 -47 -40 -80 -66 -86 -68 -227 -226 -282 -317 -63 -104 -149 -311 -158
-380 -4 -27 -13 -65 -21 -83 -9 -19 -12 -42 -8 -55 7 -21 7 -21 15 -2 4 11 8
31 8 45 1 14 10 31 21 38 11 7 20 21 20 31 0 23 100 221 135 266 14 19 25 38
25 44 0 5 6 14 13 18 7 4 30 35 52 67 39 59 139 164 206 219 102 82 122 97
134 97 23 0 -6 -44 -54 -84 -54 -46 -172 -185 -253 -301 -59 -84 -66 -95 -83
-132 -9 -18 -19 -33 -24 -33 -5 0 -12 -13 -16 -29 -3 -16 -12 -35 -20 -41 -7
-6 -16 -23 -20 -37 -3 -15 -15 -38 -26 -51 -10 -14 -19 -34 -19 -46 0 -12 -7
-31 -15 -43 -9 -12 -20 -41 -25 -65 -5 -24 -15 -63 -23 -88 -41 -127 -54 -231
-33 -274 9 -19 16 -45 16 -58 0 -13 6 -33 14 -44 8 -11 18 -38 21 -60 4 -21
13 -46 20 -54 6 -8 22 -37 35 -63 12 -27 33 -60 46 -74 13 -14 24 -29 24 -33
0 -24 238 -280 260 -280 4 0 33 -24 64 -54 30 -30 69 -57 85 -61 16 -3 37 -15
47 -26 9 -10 24 -19 32 -19 8 0 25 -11 38 -25 20 -21 31 -25 75 -23 47 2 54 0
78 -29 33 -40 106 -57 126 -29 16 21 80 9 121 -23 15 -11 35 -21 45 -21 10 0
21 -4 24 -10 10 -16 23 -12 35 10 12 22 -75 121 -119 135 -12 3 -27 18 -35 33
-8 15 -25 36 -38 48 -83 74 -244 275 -295 369 -87 161 -125 255 -149 368 -7
37 -18 76 -24 87 -32 59 -34 496 -4 604 8 28 19 71 24 96 6 25 17 59 25 75 8
17 19 49 25 73 6 23 15 42 19 42 5 0 14 12 20 28 17 40 40 80 73 126 16 23 41
59 55 81 49 74 283 295 313 295 22 0 44 26 37 44 -7 18 -50 26 -73 13z"/>
<path d="M8125 5951 l-110 -6 0 -270 0 -270 29 -3 c40 -5 46 9 46 121 0 111
-12 101 122 97 92 -2 108 6 108 59 0 30 -16 35 -125 35 l-100 1 -3 64 c-2 35
1 68 6 73 6 6 64 9 130 9 129 -2 132 0 132 54 0 31 -28 46 -82 43 -24 -1 -92
-4 -153 -7z"/>
<path d="M9125 5941 c-21 -12 -45 -21 -51 -21 -21 0 -73 -50 -110 -106 l-36
-55 4 -97 c4 -108 0 -100 96 -198 32 -32 62 -54 75 -54 12 -1 33 -7 47 -15 32
-19 91 -19 132 -1 18 8 44 17 58 20 71 15 170 163 170 253 0 187 -233 353
-385 274z m146 -82 c168 -36 200 -255 52 -356 -48 -33 -168 -39 -200 -10 -11
9 -24 17 -29 17 -35 0 -100 158 -78 188 7 9 14 27 14 40 0 40 80 114 131 122
24 4 47 8 51 9 4 0 31 -4 59 -10z"/>
<path d="M10245 5951 c-186 -6 -190 -6 -193 -28 -8 -54 13 -66 104 -61 55 3
87 1 92 -6 3 -6 5 -105 3 -219 -3 -225 -1 -237 49 -237 49 0 52 12 49 233 -1
112 1 209 5 216 6 8 29 12 70 11 85 -3 83 -4 96 36 21 62 15 64 -275 55z"/>
<path d="M11310 5951 c-85 -25 -130 -58 -183 -131 -45 -63 -49 -232 -7 -289
36 -50 66 -81 76 -81 5 0 17 -9 27 -20 9 -11 26 -20 37 -20 12 0 35 -7 52 -16
63 -33 195 6 269 80 27 27 49 54 49 60 0 6 9 28 20 49 24 45 27 142 5 171 -8
11 -15 27 -15 37 0 26 -89 113 -141 137 -48 23 -148 36 -189 23z m166 -102
c12 -4 39 -29 60 -55 72 -87 48 -222 -52 -293 -63 -45 -168 -38 -230 15 -27
23 -52 52 -56 65 -4 13 -12 43 -19 67 -9 32 -10 45 -1 54 7 7 12 25 12 40 0
88 169 152 286 107z"/>
<path d="M12478 5953 c-20 -2 -42 -11 -48 -19 -7 -8 -17 -14 -22 -14 -18 0
-107 -80 -114 -103 -4 -12 -14 -27 -23 -34 -29 -21 -22 -187 9 -238 40 -65
117 -135 149 -135 15 0 36 -7 47 -15 24 -18 103 -19 129 -1 11 7 37 16 57 20
77 14 98 48 98 153 0 124 -5 130 -119 123 -62 -4 -87 -9 -94 -21 -19 -30 -1
-49 45 -49 74 0 88 -8 88 -47 0 -83 -63 -118 -181 -99 -172 27 -210 273 -57
370 42 27 170 26 208 -3 34 -24 88 -28 96 -6 27 70 -123 136 -268 118z"/>
<path d="M15542 5953 c-77 -3 -114 -7 -117 -16 -2 -7 -6 -123 -8 -259 -5 -276
-4 -282 53 -276 l35 3 5 110 5 110 87 -3 c49 -2 96 -1 106 3 23 7 44 49 36 70
-7 16 -8 17 -139 19 l-90 1 -3 66 c-4 85 -1 87 123 79 97 -7 101 -6 128 18 50
47 20 84 -66 80 -23 -1 -93 -4 -155 -5z"/>
<path d="M16310 5950 c-13 -8 -15 -51 -18 -264 -4 -302 0 -317 73 -284 l25 11
0 257 c0 194 -3 260 -12 268 -21 16 -52 22 -68 12z"/>
<path d="M13394 5928 c-4 -12 -7 -131 -8 -265 l-2 -242 29 -12 c53 -22 62 -6
62 107 l0 99 44 3 c52 4 63 -6 111 -104 53 -104 104 -140 134 -92 11 18 3 36
-49 123 -36 58 -38 63 -31 80 3 9 19 23 36 33 16 9 33 26 36 37 3 11 12 34 21
50 27 53 -17 142 -87 178 -76 38 -284 42 -296 5z m271 -88 c40 -37 35 -97 -10
-133 -32 -26 -41 -28 -108 -25 l-72 3 -1 70 c-2 113 2 119 92 113 60 -4 79 -9
99 -28z"/>
<path d="M14572 5938 c-15 -8 -26 -26 -33 -54 -6 -24 -17 -49 -25 -55 -8 -6
-14 -17 -14 -23 0 -7 -9 -29 -19 -50 -11 -21 -23 -51 -26 -66 -3 -16 -12 -34
-20 -40 -7 -6 -16 -23 -20 -38 -4 -15 -12 -34 -20 -42 -7 -8 -16 -26 -20 -40
-4 -14 -16 -36 -26 -49 -22 -28 -25 -74 -5 -90 20 -17 84 23 93 57 19 79 35
89 141 95 l97 5 27 -30 c14 -17 29 -45 32 -63 9 -45 53 -73 92 -58 20 7 18 66
-4 94 -24 32 -72 128 -72 144 0 7 -6 18 -14 24 -8 7 -17 27 -20 45 -4 19 -13
39 -20 45 -8 7 -17 27 -20 45 -4 19 -13 39 -21 46 -8 7 -17 28 -21 49 -11 59
-22 68 -62 49z m43 -190 c4 -18 13 -40 20 -48 43 -50 26 -73 -53 -74 -68 -1
-83 14 -54 53 12 16 24 41 28 55 6 23 27 45 46 46 3 0 10 -15 13 -32z"/>
<path d="M17122 5926 c-11 -14 -23 -41 -26 -60 -4 -19 -13 -39 -21 -46 -8 -7
-15 -18 -15 -24 0 -6 -11 -33 -25 -61 -13 -27 -25 -57 -25 -66 0 -9 -6 -22
-14 -28 -8 -7 -18 -25 -21 -41 -3 -16 -12 -34 -20 -40 -8 -6 -17 -24 -20 -40
-3 -15 -15 -36 -26 -46 -23 -20 -25 -67 -4 -84 13 -10 19 -10 33 4 10 9 23 16
29 16 6 0 26 29 43 65 l32 65 76 0 c42 0 87 3 98 6 28 7 70 -37 79 -82 7 -38
49 -76 79 -72 30 4 35 72 8 102 -11 11 -23 32 -27 46 -4 14 -13 32 -20 40 -7
8 -16 29 -20 47 -3 17 -12 37 -20 43 -7 6 -16 23 -20 38 -6 27 -37 99 -57 137
-7 11 -17 38 -23 60 -15 49 -44 58 -73 21z m53 -173 c3 -16 13 -35 21 -44 7
-8 16 -29 20 -46 l6 -30 -63 -6 c-35 -3 -67 -3 -71 -1 -13 8 -9 41 7 54 8 7
17 27 21 46 5 30 25 53 45 54 4 0 10 -12 14 -27z"/>
<path d="M2850 5708 c-215 -6 -290 -14 -290 -28 0 -12 127 -24 305 -27 94 -1
197 -4 230 -7 73 -6 1101 -13 2780 -21 693 -3 1270 -8 1283 -11 12 -4 22 -4
22 -1 0 2 7 21 15 40 31 75 223 68 -2074 65 -1131 -2 -2153 -6 -2271 -10z"/>
<path d="M18011 5707 c-16 -16 -14 -39 5 -66 l17 -23 566 6 c855 9 3270 21
3571 17 152 -2 318 2 388 9 110 10 126 9 149 -5 45 -30 227 5 195 37 -25 25
-265 28 -2623 33 -1682 3 -2259 1 -2268 -8z"/>
</g>
</svg>
